<svg id="Capa_1" enable-background="new 0 0 512 512" height="512" viewBox="0 0 512 512" width="512" xmlns="http://www.w3.org/2000/svg"><g id="XMLID_780_"><path id="XMLID_895_" d="m435.584 190h-20.092l-4.456 44h24.548c12.36 0 22.416 10.057 22.416 22.417v79.166c0 12.36-10.056 22.417-22.416 22.417h-38.708l-4.876 44h43.584c36.622 0 66.416-29.795 66.416-66.417v-79.166c0-36.622-29.794-66.417-66.416-66.417z" fill="#ccf5fc"/><circle id="XMLID_494_" cx="127.972" cy="127.972" fill="#ffda8f" r="117.972"/><circle id="XMLID_873_" cx="127.972" cy="127.972" fill="#ffcd69" r="77.972"/><path id="XMLID_1271_" d="m97.305 128 38.377 338.506c2.293 20.218 19.398 35.494 39.746 35.494h169.347c20.348 0 37.453-15.276 39.745-35.494l38.378-338.506z" fill="#ccf5fc"/><path id="XMLID_318_" d="m148.1 185.447 30.9 272.553h162.203l30.9-272.553z" fill="#ff7d97"/><path id="XMLID_75_" d="m363.169 185.447 44.098-164.577-40.569-10.87-47.011 175.447z" fill="#c68a65"/><path id="XMLID_917_" d="m319.672 185.447 44.099-164.577-40.569-10.87-47.011 175.447z" fill="#c68a65"/><g id="XMLID_524_"><path id="XMLID_525_" d="m226.33 244c0-2.63-1.06-5.21-2.93-7.07-1.86-1.86-4.43-2.93-7.07-2.93-2.63 0-5.21 1.07-7.07 2.93s-2.93 4.44-2.93 7.07 1.07 5.21 2.93 7.07 4.44 2.93 7.07 2.93 5.21-1.07 7.07-2.93c1.87-1.86 2.93-4.44 2.93-7.07z"/><path id="XMLID_528_" d="m260.1 317c-2.63 0-5.21 1.07-7.07 2.93s-2.93 4.44-2.93 7.07 1.07 5.21 2.93 7.07 4.44 2.93 7.07 2.93 5.211-1.07 7.07-2.93c1.86-1.86 2.93-4.44 2.93-7.07s-1.07-5.21-2.93-7.07-4.44-2.93-7.07-2.93z"/><path id="XMLID_529_" d="m227.67 380.33c-2.64 0-5.21 1.07-7.07 2.93-1.87 1.86-2.93 4.44-2.93 7.07 0 2.64 1.06 5.21 2.93 7.07 1.86 1.87 4.43 2.93 7.07 2.93 2.63 0 5.21-1.06 7.07-2.93 1.86-1.86 2.93-4.43 2.93-7.07 0-2.63-1.07-5.211-2.93-7.07-1.86-1.86-4.44-2.93-7.07-2.93z"/><path id="XMLID_530_" d="m302 401c-2.63 0-5.21 1.07-7.07 2.93s-2.93 4.44-2.93 7.07 1.07 5.21 2.93 7.07 4.44 2.93 7.07 2.93 5.21-1.07 7.07-2.93 2.93-4.44 2.93-7.07-1.07-5.21-2.93-7.07-4.44-2.93-7.07-2.93z"/><path id="XMLID_533_" d="m435.584 180h-8.517l5.768-50.874c.321-2.83-.581-5.663-2.478-7.787-1.897-2.125-4.61-3.339-7.458-3.339h-31.304l25.332-94.541c1.43-5.335-1.736-10.818-7.071-12.248l-40.569-10.87c-2.562-.686-5.292-.327-7.588.999-2.297 1.326-3.973 3.51-4.659 6.072l-.326 1.215-30.924-8.286c-2.561-.686-5.292-.327-7.588.999-2.297 1.326-3.973 3.51-4.659 6.072l-29.632 110.588h-28.353c-5.105-65.921-60.377-118-127.586-118-70.564 0-127.972 57.408-127.972 127.972 0 30.874 11.147 60.692 31.39 83.959 18.329 21.069 42.974 35.525 70.043 41.247l8.148 71.867c.622 5.488 5.578 9.431 11.063 8.81 5.488-.623 9.432-5.575 8.81-11.063l-20.951-184.792h24.154l36.407 321.126c.573 5.055 4.85 8.874 9.937 8.874h162.203c5.087 0 9.363-3.819 9.937-8.874l36.406-321.126h24.154l-37.117 327.379c-1.72 15.177-14.535 26.621-29.809 26.621h-169.347c-15.273 0-28.089-11.444-29.809-26.621l-6.03-53.186c-.623-5.487-5.576-9.425-11.063-8.81-5.488.623-9.432 5.575-8.81 11.063l6.03 53.186c2.868 25.294 24.226 44.368 49.682 44.368h169.347c25.456 0 46.814-19.074 49.682-44.368l6.307-55.632h34.82c42.136 0 76.416-34.28 76.416-76.417v-79.166c0-42.137-34.28-76.417-76.416-76.417zm-136.327-42h22.776l-10.034 37.448h-22.776zm43.496 0h22.776l-10.034 37.448h-22.776zm52.267-110.059-24.132 90.059h-22.776l25.657-95.752zm-64.747-5.693 21.25 5.694-24.131 90.058h-22.776zm-310.273 105.724c0-59.536 48.436-107.972 107.972-107.972 56.173 0 102.457 43.122 107.507 98h-20.104c-4.968-43.829-42.267-78-87.403-78-48.508 0-87.972 39.464-87.972 87.972 0 19.351 6.164 37.711 17.825 53.096 9.913 13.078 23.492 23.234 38.73 29.087l2.477 21.852c-45.864-12.802-79.032-55.397-79.032-104.035zm125.292-10 24.933-43.185c13.184 10.496 22.398 25.769 24.977 43.185zm-17.32-10-24.947-43.209c7.73-3.062 16.141-4.763 24.947-4.763s17.217 1.701 24.947 4.763zm-39.597 30.028 5.53 48.776c-17.682-10.322-30.045-28.353-33.137-48.776zm-27.637-20c2.574-17.428 11.79-32.711 24.981-43.213l24.949 43.213zm217.814 20-10.034 37.448h-111.487l-4.246-37.448zm53.721 310h-144.343l-28.632-252.552h201.607zm87.538-204h15.773c6.846 0 12.416 5.57 12.416 12.417v79.166c0 6.847-5.57 12.417-12.416 12.417h-27.564zm72.189 91.583c0 31.108-25.308 56.417-56.416 56.417h-32.552l2.721-24h29.831c17.874 0 32.416-14.542 32.416-32.417v-79.166c0-17.875-14.542-32.417-32.416-32.417h-13.505l2.721-24h10.784c31.108 0 56.416 25.309 56.416 56.417z"/><path id="XMLID_1142_" d="m130.74 375.8c1.86-1.86 2.93-4.44 2.93-7.07 0-2.64-1.07-5.21-2.93-7.08-1.86-1.86-4.44-2.92-7.07-2.92s-5.21 1.06-7.07 2.92c-1.87 1.87-2.93 4.44-2.93 7.08 0 2.63 1.06 5.21 2.93 7.07 1.86 1.86 4.44 2.93 7.07 2.93s5.21-1.07 7.07-2.93z"/></g></g></svg>