<svg id="Capa_1" enable-background="new 0 0 512.002 512.002" height="512" viewBox="0 0 512.002 512.002" width="512" xmlns="http://www.w3.org/2000/svg"><g id="XMLID_919_"><path id="XMLID_947_" d="m471.38 40.621c-39.622-39.622-103.436-40.961-144.685-3.036l-227.11 208.805c-49.196 45.231-50.814 122.33-3.559 169.585 47.255 47.255 124.355 45.637 169.585-3.559l208.805-227.11c37.925-41.249 36.585-105.063-3.036-144.685z" fill="#ffda8f"/><path id="XMLID_1248_" d="m57.677 498.573-44.249-44.25c-5.22-5.22-4.359-13.911 1.784-18.005l41.287-27.516 46.699 46.699-27.516 41.288c-4.094 6.143-12.785 7.004-18.005 1.784z" fill="#d5ea79"/><path id="XMLID_945_" d="m79.849 242.688c40.75-40.75 100.16-56.637 155.81-41.664l208.647 56.134-174.993 174.994c-52.319 52.319-137.145 52.319-189.464 0-52.319-52.319-52.319-137.145 0-189.464z" fill="#e0ef9b"/><path id="XMLID_940_" d="m269.312 432.152c40.75-40.75 56.637-100.16 41.665-155.81l-56.134-208.648-174.994 174.994c-52.319 52.319-52.319 137.145 0 189.464 52.319 52.319 137.145 52.319 189.463 0z" fill="#d5ea79"/><g id="XMLID_705_"><path id="XMLID_829_" d="m511.976 112.143c-.623-29.686-12.529-57.597-33.525-78.593s-48.907-32.902-78.594-33.525c-29.637-.617-58.072 10.101-79.931 30.198l-51.957 47.77-3.47-12.897c-.928-3.448-3.623-6.14-7.073-7.062-3.449-.924-7.129.065-9.654 2.589l-61.754 61.754c-3.905 3.905-3.906 10.237-.001 14.142s10.238 3.905 14.142 0l49.521-49.521 51.64 191.941c14 52.038-.974 108.036-39.079 146.141-48.335 48.336-126.985 48.336-175.321-.001-23.415-23.415-36.31-54.547-36.31-87.661s12.895-64.246 36.31-87.661l49.601-49.6c3.905-3.905 3.906-10.237.001-14.142s-10.237-3.905-14.142-.001l-49.601 49.6c-45.327 45.328-54.046 113.601-26.175 167.766l-36.938 24.617c-5.431 3.62-8.915 9.421-9.559 15.916s1.634 12.867 6.249 17.482l44.25 44.25c4.102 4.101 9.589 6.356 15.319 6.356.718 0 1.44-.036 2.163-.107 6.495-.643 12.296-4.127 15.916-9.559l24.586-36.891c20.158 10.419 42.648 15.947 65.992 15.947 38.453 0 74.604-14.974 101.796-42.162.002-.002.005-.004.007-.006l174.994-174.994c2.525-2.525 3.512-6.205 2.589-9.655-.922-3.449-3.614-6.145-7.062-7.073l-12.897-3.47 47.77-51.957c20.095-21.858 30.82-50.245 30.197-79.931zm-444.615 379.1c-.368.553-.88.712-1.245.748-.362.037-.898-.019-1.368-.489l-44.25-44.25c-.47-.469-.525-1.003-.489-1.368s.195-.877.748-1.245l36.231-24.146c4.649 6.574 9.907 12.847 15.789 18.729 5.845 5.846 12.108 11.122 18.715 15.811zm251.531-122.813c9.302-30.318 10.228-63.143 1.741-94.687l-11.457-42.585 115.827 31.162zm93.336-130.258-109.059-29.341-29.34-109.057 59.634-54.828c37.425-34.408 94.899-33.2 130.846 2.746 35.947 35.948 37.153 93.422 2.746 130.846z"/><path id="XMLID_832_" d="m408.927 120.145c2.56 0 5.118-.977 7.071-2.929 3.905-3.905 3.905-10.237 0-14.143l-7.071-7.071c-3.906-3.904-10.236-3.904-14.143 0-3.905 3.905-3.905 10.237 0 14.143l7.071 7.071c1.954 1.953 4.512 2.929 7.072 2.929z"/><path id="XMLID_833_" d="m377.298 127.632c-3.905-3.905-10.235-3.905-14.143 0-3.905 3.905-3.905 10.237 0 14.142l7.07 7.071c1.953 1.953 4.512 2.929 7.071 2.929s5.118-.977 7.071-2.929c3.905-3.905 3.905-10.237 0-14.142z"/><path id="XMLID_834_" d="m365.44 80.8c1.953 1.953 4.512 2.929 7.071 2.929s5.119-.977 7.071-2.929c3.905-3.905 3.905-10.237 0-14.142l-7.071-7.071c-3.906-3.905-10.238-3.905-14.143 0s-3.905 10.237 0 14.142z"/><path id="XMLID_836_" d="m347.952 98.288-7.07-7.071c-3.903-3.904-10.236-3.905-14.142-.001-3.906 3.905-3.906 10.237-.001 14.143l7.07 7.071c1.952 1.953 4.512 2.929 7.071 2.929s5.118-.976 7.07-2.928c3.908-3.906 3.908-10.237.002-14.143z"/><path id="XMLID_838_" d="m445.343 132.419c-3.906-3.904-10.236-3.904-14.143 0-3.905 3.905-3.905 10.237 0 14.143l7.071 7.071c1.953 1.952 4.512 2.929 7.071 2.929s5.118-.977 7.071-2.929c3.905-3.905 3.905-10.237 0-14.143z"/><path id="XMLID_840_" d="m413.714 164.048c-3.904-3.905-10.234-3.905-14.143-.001-3.905 3.905-3.905 10.237 0 14.142l7.07 7.071c1.953 1.953 4.512 2.929 7.071 2.929s5.118-.977 7.071-2.929c3.905-3.905 3.905-10.237 0-14.142z"/><path id="XMLID_841_" d="m327.46 141.053c-3.906-3.904-10.236-3.904-14.143 0-3.905 3.905-3.905 10.237 0 14.143l7.071 7.071c1.953 1.952 4.512 2.929 7.071 2.929 2.56 0 5.118-.977 7.071-2.929 3.905-3.905 3.905-10.237 0-14.143z"/><path id="XMLID_843_" d="m440.556 88.516c2.56 0 5.118-.977 7.071-2.929 3.905-3.905 3.905-10.237 0-14.143l-7.071-7.071c-3.906-3.904-10.236-3.904-14.143 0-3.905 3.905-3.905 10.237 0 14.143l7.071 7.071c1.954 1.953 4.512 2.929 7.072 2.929z"/><path id="XMLID_844_" d="m363.876 177.469c-3.906-3.904-10.236-3.904-14.143 0-3.905 3.905-3.905 10.237 0 14.143l7.071 7.071c1.953 1.952 4.512 2.929 7.071 2.929 2.56 0 5.118-.976 7.071-2.929 3.905-3.905 3.905-10.237 0-14.143z"/><path id="XMLID_845_" d="m161.266 171.27c2.63 0 5.21-1.07 7.07-2.93 1.87-1.86 2.93-4.44 2.93-7.07s-1.06-5.21-2.93-7.07c-1.86-1.86-4.43-2.93-7.07-2.93-2.63 0-5.21 1.07-7.07 2.93s-2.93 4.44-2.93 7.07 1.07 5.21 2.93 7.07 4.44 2.93 7.07 2.93z"/></g></g></svg>