<svg id="Capa_1" enable-background="new 0 0 512 512" height="512" viewBox="0 0 512 512" width="512" xmlns="http://www.w3.org/2000/svg"><g id="XMLID_1306_"><g id="XMLID_956_"><path id="XMLID_957_" d="m68.085 134 55.697 368h52.887l-33.418-368z" fill="#ff7d97"/><path id="XMLID_959_" d="m368.749 134-33.418 368h52.887l55.697-368z" fill="#ff7d97"/><path id="XMLID_960_" d="m143.251 134 33.418 368h52.887l-11.139-368z" fill="#fff"/><path id="XMLID_961_" d="m293.583 134-11.14 368h52.888l33.418-368z" fill="#fff"/><path id="XMLID_962_" d="m218.417 134 11.139 368h52.887l11.14-368z" fill="#ff7d97"/></g><path id="XMLID_31_" d="m436.249 134.007c2.828-5.572 4.423-11.876 4.423-18.553 0-19.058-12.99-35.078-30.598-39.7 1.558-12.174-2.327-24.913-11.677-34.263-15.638-15.638-40.751-16.012-56.852-1.136-7.316-6.754-17.09-10.886-27.832-10.886-7.307 0-14.162 1.918-20.105 5.265-6.311-14.551-20.799-24.734-37.67-24.734s-31.359 10.183-37.669 24.735c-5.943-3.347-12.798-5.265-20.105-5.265-10.742 0-20.516 4.132-27.832 10.886-16.101-14.876-41.214-14.502-56.852 1.136-9.35 9.351-13.236 22.089-11.677 34.263-17.608 4.621-30.598 20.642-30.598 39.7 0 6.674 1.593 12.977 4.42 18.548z" fill="#ffda8f"/><circle id="XMLID_814_" cx="256" cy="318" fill="#fff" r="90.562"/><circle id="XMLID_821_" cx="256" cy="318" fill="#ffcd69" r="44.12"/><g id="XMLID_827_"><path id="XMLID_897_" d="m451.497 127.479c-.563-.654-1.209-1.215-1.905-1.696.7-3.394 1.079-6.857 1.079-10.329 0-20.399-12.11-38.564-30.279-46.643-.399-12.882-5.629-25.095-14.925-34.391-17.387-17.386-44.046-19.726-63.934-6.703-8.228-5.361-17.853-8.248-27.821-8.248-5.38 0-10.722.856-15.807 2.511-9.416-13.6-25.008-21.98-41.967-21.98s-32.552 8.38-41.968 21.981c-5.085-1.655-10.427-2.511-15.807-2.511-9.969 0-19.593 2.886-27.821 8.248-19.889-13.024-46.546-10.682-63.934 6.703-9.296 9.296-14.525 21.509-14.925 34.391-18.169 8.079-30.279 26.244-30.279 46.643 0 3.497.385 6.986 1.095 10.402-.655.465-1.262 1.002-1.796 1.623-1.899 2.209-2.741 5.136-2.306 8.017l55.696 368c.74 4.889 4.942 8.503 9.888 8.503h264.436c4.945 0 9.147-3.614 9.888-8.503l21.113-139.502c.826-5.461-2.931-10.558-8.392-11.384-5.453-.832-10.557 2.93-11.384 8.391l-19.825 130.998h-33.337l31.602-348h54.405l-19.374 128.004c-.826 5.461 2.931 10.558 8.392 11.384 5.454.831 10.557-2.93 11.384-8.391l21.114-139.501c.435-2.88-.406-5.807-2.306-8.017zm-347.157-42.052c4.86-1.275 8.019-5.958 7.381-10.941-1.232-9.631 1.986-19.08 8.83-25.923 11.83-11.829 30.717-12.207 42.994-.862 3.83 3.539 9.737 3.54 13.569.002 5.751-5.309 13.227-8.233 21.049-8.233 5.321 0 10.577 1.375 15.199 3.978 2.469 1.39 5.409 1.667 8.094.765 2.684-.903 4.86-2.902 5.987-5.5 4.929-11.368 16.114-18.713 28.495-18.713s23.565 7.345 28.494 18.712c1.127 2.599 3.303 4.598 5.987 5.5s5.625.625 8.094-.765c4.622-2.603 9.878-3.978 15.199-3.978 7.822 0 15.298 2.924 21.049 8.233 3.831 3.539 9.738 3.535 13.569-.002 12.279-11.344 31.166-10.967 42.994.862 6.844 6.843 10.062 16.292 8.83 25.923-.638 4.983 2.521 9.666 7.381 10.941 13.622 3.575 23.136 15.923 23.136 30.027 0 2.937-.406 5.793-1.193 8.545h-347.08c-.787-2.752-1.194-5.608-1.194-8.545 0-14.103 9.514-26.451 23.136-30.026zm151.66 313.135c-44.422 0-80.562-36.14-80.562-80.562s36.141-80.562 80.562-80.562 80.562 36.14 80.562 80.562-36.14 80.562-80.562 80.562zm-101.8-254.562h54.515l2.542 83.958c-19.584 9.771-35.551 25.744-45.316 45.333zm126.757 76.574c-7.983-2.046-16.345-3.136-24.957-3.136s-16.975 1.09-24.958 3.136l-2.317-76.574h54.551zm-201.245-76.574h54.406l31.602 348h-33.338zm95.752 234.159c10.601 14.156 24.842 25.436 41.321 32.441l2.464 81.4h-33.447zm63.794 113.841-2.278-75.25c6.161 1.184 12.519 1.812 19.02 1.812s12.858-.628 19.02-1.812l-2.279 75.25zm53.492 0 2.464-81.4c16.479-7.005 30.72-18.285 41.322-32.441l-10.338 113.841zm53.309-218.708c-9.764-19.589-25.732-35.562-45.317-45.334l2.543-83.958h54.515z"/><path id="XMLID_910_" d="m150.855 102.335c5.522 0 10-4.477 10-10 0-1.516 1.233-2.75 2.75-2.75 5.522 0 10-4.477 10-10s-4.478-10-10-10c-12.544 0-22.75 10.206-22.75 22.75 0 5.523 4.477 10 10 10z"/><path id="XMLID_911_" d="m348.271 89.585c1.517 0 2.75 1.234 2.75 2.75 0 5.523 4.477 10 10 10 5.522 0 10-4.477 10-10 0-12.544-10.206-22.75-22.75-22.75-5.523 0-10 4.477-10 10s4.477 10 10 10z"/><path id="XMLID_914_" d="m253.992 83.58c1.074-1.072 2.816-1.072 3.891 0 1.952 1.953 4.511 2.929 7.07 2.929 2.56 0 5.119-.977 7.071-2.929 3.905-3.906 3.905-10.237-.001-14.142-8.869-8.869-23.303-8.869-32.172 0-3.906 3.905-3.906 10.236-.001 14.142 3.905 3.904 10.238 3.906 14.142 0z"/><path id="XMLID_920_" d="m256 263.88c-29.842 0-54.12 24.278-54.12 54.12s24.278 54.12 54.12 54.12 54.12-24.278 54.12-54.12-24.278-54.12-54.12-54.12zm0 88.24c-18.814 0-34.12-15.306-34.12-34.12s15.307-34.12 34.12-34.12 34.12 15.306 34.12 34.12-15.306 34.12-34.12 34.12z"/><path id="XMLID_921_" d="m416.067 308c-2.63 0-5.21 1.07-7.07 2.93-1.859 1.86-2.93 4.44-2.93 7.07s1.07 5.21 2.93 7.07 4.44 2.93 7.07 2.93 5.21-1.07 7.07-2.93c1.859-1.86 2.93-4.44 2.93-7.07s-1.07-5.21-2.93-7.07-4.44-2.93-7.07-2.93z"/></g></g></svg>